HIERARCHY
ROOT Hips
{
	OFFSET -0.001795 -0.223333 0.028219
	CHANNELS 6 Xposition Yposition Zposition Zrotation Yrotation Xrotation 
	JOINT LeftUpLeg
	{
		OFFSET 0.069520 -0.091406 -0.006815
		CHANNELS 3 Zrotation Yrotation Xrotation
		JOINT LeftLeg
		{
			OFFSET 0.034277 -0.375199 -0.004496
			CHANNELS 3 Zrotation Yrotation Xrotation
			JOINT LeftFoot
			{
				OFFSET -0.013596 -0.397961 -0.043693
				CHANNELS 3 Zrotation Yrotation Xrotation
				JOINT LeftToe
				{
					OFFSET 0.026358 -0.055791 0.119288
					CHANNELS 3 Zrotation Yrotation Xrotation
					End Site
					{
						OFFSET 0.000000 0.000000 0.000000
					}
				}
			}
		}
	}
	JOINT RightUpLeg
	{
		OFFSET -0.067670 -0.090522 -0.004320
		CHANNELS 3 Zrotation Yrotation Xrotation
		JOINT RightLeg
		{
			OFFSET -0.038290 -0.382569 -0.008850
			CHANNELS 3 Zrotation Yrotation Xrotation
			JOINT RightFoot
			{
				OFFSET 0.015774 -0.398415 -0.042312
				CHANNELS 3 Zrotation Yrotation Xrotation
				JOINT RightToe
				{
					OFFSET -0.025372 -0.048144 0.123348
					CHANNELS 3 Zrotation Yrotation Xrotation
					End Site
					{
						OFFSET 0.000000 0.000000 0.000000
					}
				}
			}
		}
	}
	JOINT Spine
	{
		OFFSET -0.002533 0.108963 -0.026696
		CHANNELS 3 Zrotation Yrotation Xrotation
		JOINT Spine1
		{
			OFFSET 0.005487 0.135180 0.001092
			CHANNELS 3 Zrotation Yrotation Xrotation
			JOINT Spine2
			{
				OFFSET 0.001457 0.052922 0.025425
				CHANNELS 3 Zrotation Yrotation Xrotation
				JOINT Neck
				{
					OFFSET -0.002778 0.213870 -0.042857
					CHANNELS 3 Zrotation Yrotation Xrotation
					JOINT Head
					{
						OFFSET 0.005152 0.064970 0.051349
						CHANNELS 3 Zrotation Yrotation Xrotation
						End Site
						{
							OFFSET 0.000000 0.000000 0.000000
						}
					}
				}
				JOINT LeftShoulder
				{
					OFFSET 0.078845 0.121749 -0.034090
					CHANNELS 3 Zrotation Yrotation Xrotation
					JOINT LeftArm
					{
						OFFSET 0.090977 0.030469 -0.008868
						CHANNELS 3 Zrotation Yrotation Xrotation
						JOINT LeftForeArm
						{
							OFFSET 0.259612 -0.012772 -0.027456
							CHANNELS 3 Zrotation Yrotation Xrotation
							JOINT LeftHand
							{
								OFFSET 0.249234 0.008986 -0.001171
								CHANNELS 3 Zrotation Yrotation Xrotation
								End Site
								{
									OFFSET 0.000000 0.000000 0.000000
								}
							}
						}
					}
				}
				JOINT RightShoulder
				{
					OFFSET -0.081759 0.118833 -0.038615
					CHANNELS 3 Zrotation Yrotation Xrotation
					JOINT RightArm
					{
						OFFSET -0.096012 0.032551 -0.009143
						CHANNELS 3 Zrotation Yrotation Xrotation
						JOINT RightForeArm
						{
							OFFSET -0.253742 -0.013329 -0.021401
							CHANNELS 3 Zrotation Yrotation Xrotation
							JOINT RightHand
							{
								OFFSET -0.255298 0.007772 -0.005559
								CHANNELS 3 Zrotation Yrotation Xrotation
								End Site
								{
									OFFSET 0.000000 0.000000 0.000000
								}
							}
						}
					}
				}
			}
		}
	}
}
MOTION
Frames: 8
Frame Time: 0.050000
0.000000 0.949014 0.000000 -2.425445 5.249093 -0.968958 1.878053 1.014837 17.645369 -0.722408 -1.617910 33.492505 -0.518453 6.774538 19.840620 0.000000 0.000000 0.000000 4.283681 3.175872 -25.461434 2.970956 -0.365576 20.298401 -8.392741 -19.584008 59.635636 0.000000 0.000000 0.000000 5.531111 -1.047057 10.704308 6.170462 -4.596708 12.017605 -0.999704 -9.867543 -12.986627 -0.888737 0.826881 15.623635 0.000000 0.000000 0.000000 -18.964680 -5.189874 2.111403 -32.601934 0.862572 -3.300988 -124.996139 -60.215570 103.972432 0.000000 0.000000 0.000000 14.417582 -11.540835 -8.090855 32.498523 -25.983477 -8.233958 88.082164 48.937026 45.529407 0.000000 0.000000 0.000000 
-0.005135 0.921406 0.008555 -2.530230 1.542942 -1.472144 4.594035 0.552989 13.088178 -3.918475 -0.119458 53.244009 3.718355 10.357479 10.256639 0.000000 0.000000 0.000000 6.256116 3.451355 -23.172721 4.988959 -0.903303 30.942617 -10.166536 -21.986832 35.865522 0.000000 0.000000 0.000000 6.049733 -1.117491 11.346312 4.020489 -2.866832 10.869400 1.105304 -8.112791 -10.861088 -2.335207 2.128404 11.220632 0.000000 0.000000 0.000000 -21.222190 0.393081 -0.881469 -30.671126 2.489564 -3.664902 -114.092227 -54.692433 84.429093 0.000000 0.000000 0.000000 12.715448 -7.509712 -5.890282 36.879499 -21.259150 -8.280513 91.638338 54.419015 53.352048 0.000000 0.000000 0.000000 
-0.008381 0.915839 0.010537 -1.904883 -1.331587 -3.226600 4.193196 0.172264 3.293080 -3.948691 1.033581 70.184790 5.504446 12.555682 5.812468 0.000000 0.000000 0.000000 8.546971 2.214333 -13.278614 1.316024 0.874399 30.086962 -4.422026 -11.306807 1.133853 0.000000 0.000000 0.000000 4.640425 -1.333066 16.667010 2.441285 -1.591317 7.883082 2.098023 -1.856936 -7.789182 -2.602681 1.920399 3.096647 0.000000 0.000000 0.000000 -23.586947 0.875203 -2.512044 -29.942482 7.420727 -4.498800 -100.959535 -54.350559 68.119297 0.000000 0.000000 0.000000 14.878500 -5.121361 -4.644378 40.986421 -11.191400 -6.326369 100.006115 62.507297 71.823248 0.000000 0.000000 0.000000 
-0.008875 0.946022 0.010253 0.143745 -4.348914 -2.677211 0.503849 -0.744536 -8.714515 -4.199047 3.237148 71.881539 6.119832 14.339335 11.779044 0.000000 0.000000 0.000000 6.660407 0.127828 -1.751596 -1.570406 1.588555 21.316175 -1.965242 0.083278 -8.714499 0.000000 0.000000 0.000000 2.451849 -0.947434 16.819015 -0.405631 0.179950 8.995812 2.471833 3.663497 -8.352848 -2.339241 1.352538 5.180899 0.000000 0.000000 0.000000 -22.887747 2.587523 -4.548990 -27.297566 11.592451 -4.576894 -96.289307 -50.401531 58.054880 0.000000 0.000000 0.000000 15.954441 -1.710203 -2.493312 42.019065 -3.367115 -4.023110 119.034996 65.720488 98.031109 0.000000 0.000000 0.000000 
-0.007944 0.989264 0.012594 1.552189 -6.403822 -2.306220 -1.949340 -1.814620 -18.115860 -3.430715 2.906192 60.630489 3.856838 11.680164 19.189437 0.000000 0.000000 0.000000 3.255627 -1.242880 9.977748 -2.501068 1.217640 13.209979 0.708466 4.961331 -4.245986 0.000000 0.000000 0.000000 1.111988 -0.711738 17.430666 -1.250564 0.719172 6.675619 0.277462 10.444892 -7.772785 2.135689 -3.631626 9.853802 0.000000 0.000000 0.000000 -20.166169 3.997606 -6.300085 -27.352921 18.102373 -5.671057 -94.082945 -47.111951 50.380022 0.000000 0.000000 0.000000 15.739494 -1.917251 -1.315852 44.172041 1.194674 -3.092058 127.754055 66.153398 113.449228 0.000000 0.000000 0.000000 
-0.008478 1.018859 0.017131 2.341526 -6.702383 -1.305970 -4.107034 -2.485452 -21.433821 -2.949200 1.364715 40.004473 3.911039 12.087375 24.628098 0.000000 0.000000 0.000000 0.983585 -1.371758 14.668243 -1.844614 1.454138 17.767969 1.632936 2.153720 2.852826 0.000000 0.000000 0.000000 0.197815 -0.518769 15.457044 -4.089604 2.474525 9.078465 1.764936 11.451767 -11.050953 1.527030 -4.159858 14.495754 0.000000 0.000000 0.000000 -18.609983 4.687266 -6.367535 -25.273899 25.229874 -6.442920 -98.848132 -44.234222 51.148679 0.000000 0.000000 0.000000 13.815859 -0.313088 -0.446341 46.394421 1.312859 -2.806977 136.445582 65.883376 124.587414 0.000000 0.000000 0.000000 
-0.010805 1.016682 0.022225 1.944063 -6.787003 -0.709879 -3.974664 -2.304779 -19.990510 -1.849180 0.310496 23.525639 -0.182732 7.725771 29.864249 0.000000 0.000000 0.000000 -0.629327 -1.191364 15.919007 0.804124 2.214653 36.527755 -1.499710 -7.203579 8.350606 0.000000 0.000000 0.000000 0.293408 -0.510132 14.291315 -3.636146 2.492308 13.434356 -0.551241 12.332058 -15.049841 2.523117 -5.906860 16.277275 0.000000 0.000000 0.000000 -16.535327 4.380263 -6.074016 -25.885648 29.246340 -7.348025 -102.501748 -45.864536 55.577725 0.000000 0.000000 0.000000 15.009742 -0.331285 -0.248643 44.241589 0.561871 -2.707157 132.351107 64.427022 118.373618 0.000000 0.000000 0.000000 
-0.013777 0.981482 0.027091 2.022614 -6.202333 -2.374688 -5.814660 -2.195292 -16.195396 -0.881924 -0.061581 23.030148 -1.237794 6.862434 31.173248 0.000000 0.000000 0.000000 -3.419666 -0.644671 13.985409 7.307526 0.200956 66.658501 -6.956118 -18.134687 16.139255 0.000000 0.000000 0.000000 -0.746500 -0.413917 16.257692 -3.300872 2.378627 15.732013 -1.437650 11.826029 -17.383855 3.966158 -7.145433 15.778698 0.000000 0.000000 0.000000 -19.992851 3.319022 -6.766117 -23.785363 26.471265 -5.883722 -106.870770 -49.827120 64.709067 0.000000 0.000000 0.000000 15.743819 0.520750 0.146688 44.128465 -2.802946 -3.641209 121.808558 64.227788 104.202615 0.000000 0.000000 0.000000 
